<?xml version="1.0" standalone="no"?>
<!DOCTYPE svg PUBLIC "-//W3C//DTD SVG 1.1//EN" "http://www.w3.org/Graphics/SVG/1.1/DTD/svg11.dtd" >
<svg xmlns="http://www.w3.org/2000/svg" xmlns:xlink="http://www.w3.org/1999/xlink" version="1.1">
<metadata></metadata>
<defs>
<font id="cotham_sansregular" horiz-adv-x="1376" >
<font-face units-per-em="2048" ascent="1536" descent="-512" />
<missing-glyph horiz-adv-x="512" />
<glyph horiz-adv-x="0" />
<glyph unicode="&#xd;" horiz-adv-x="681" />
<glyph unicode=" "  horiz-adv-x="512" />
<glyph unicode="&#x09;" horiz-adv-x="512" />
<glyph unicode="&#xa0;" horiz-adv-x="512" />
<glyph unicode="!" horiz-adv-x="653" d="M199 139q0 70 43 115t108 45q70 0 115 -45t45 -115q0 -66 -45 -108.5t-115 -42.5q-63 0 -107 42.5t-44 108.5zM250 1016v500h188v-500l-26 -565h-136z" />
<glyph unicode="&#x26;" horiz-adv-x="1705" d="M264 391q0 72 21.5 132.5t65.5 111.5t84 86t104 80q-180 199 -181 368q0 150 105.5 260.5t273.5 110.5q143 0 244.5 -89t101.5 -230q0 -70 -20.5 -127.5t-68.5 -111.5t-88 -90t-118 -95q14 -14 42 -40t40 -38q57 -57 176 -180t171 -174q61 109 61 223q0 123 -86 223 q-53 66 -94 84l84 149q59 -12 133 -96q119 -139 119 -344q0 -197 -101 -356q137 -139 260 -248l-245 -2l-125 125q-176 -145 -467 -146q-209 0 -350.5 120t-141.5 294zM449 410q0 -109 99 -194t228 -85q201 0 332 107l-285 288q-6 6 -72.5 66.5t-103.5 95.5 q-96 -70 -147 -131t-51 -147zM532 1180q0 -115 148 -277q10 8 67.5 49t83 64.5t54 77t28.5 112.5q0 76 -52 124t-132 48q-86 0 -141.5 -60t-55.5 -138z" />
<glyph unicode="(" horiz-adv-x="819" d="M125 569.5q0 161.5 34 321.5t90 286t106.5 214t103.5 159l192 -2q-106 -119 -214.5 -397.5t-108.5 -581.5t108.5 -581.5t214.5 -397.5l-192 -2q-53 72 -103.5 160t-106.5 214t-90 286t-34 321.5z" />
<glyph unicode=")" horiz-adv-x="819" d="M168 -410q106 119 215 397.5t109 581.5t-109 582t-215 397l192 2q53 -72 103.5 -159.5t107 -213.5t90 -286t33.5 -321.5t-33.5 -321.5t-90 -286t-106.5 -214t-104 -160z" />
<glyph unicode="," horiz-adv-x="466" d="M57 150q0 59 42 102t104 43q92 0 141 -68q39 -51 39 -129q0 -127 -64 -245q-61 -113 -172 -195l-77 88q16 14 40.5 39t65.5 92.5t43 122.5h-12q-74 0 -112 44.5t-38 105.5z" />
<glyph unicode="-" horiz-adv-x="870" d="M113 471v170h645v-170h-645z" />
<glyph unicode="." horiz-adv-x="466" d="M51 139q0 70 43 115t109 45q70 0 114.5 -45t44.5 -115q0 -66 -45 -108.5t-114 -42.5q-63 0 -107.5 42.5t-44.5 108.5z" />
<glyph unicode="/" horiz-adv-x="909" d="M92 0l533 1550h192l-532 -1550h-193z" />
<glyph unicode="0" d="M57 766q0 377 168 579.5t465 202.5q299 0 471 -202.5t172 -579.5q0 -379 -175 -582.5t-468 -203.5q-633 0 -633 786zM258 766q0 -326 107.5 -472.5t324.5 -146.5q442 0 443 619q-1 614 -443 614q-432 0 -432 -614z" />
<glyph unicode="1" d="M188 0v170h402v999q-86 -86 -244 -86q-92 0 -149 33v125q18 -2 65 -2q121 0 221.5 65.5t106.5 223.5h182v-1358h428v-170h-1012z" />
<glyph unicode="2" d="M131 0v16q0 88 2 131t15.5 105.5t39.5 122.5h-2q94 195 465 358q92 41 150.5 73t119 78t89 103t28.5 129q0 94 -61.5 159.5t-133 90.5t-136.5 25q-139 0 -244 -64t-117 -203l-166 33q4 186 148.5 288.5t408.5 102.5q209 0 345.5 -119.5t136.5 -289.5q0 -96 -25 -173 t-55.5 -124t-94 -94.5t-103.5 -68t-122 -61.5v3l-90 -41q-84 -39 -127 -62.5t-102.5 -66.5t-95 -98.5t-56.5 -127.5q-4 -18 -4 -47q150 0 457 -2t459 -2v-174h-1129z" />
<glyph unicode="3" d="M135 369l166 32q16 -133 122.5 -200.5t235.5 -67.5q197 0 307.5 73t110.5 218q0 127 -102.5 207t-308.5 88h-11h-22h-168v143h168q188 2 284.5 83t96.5 196q0 125 -110.5 187.5t-223.5 62.5q-88 0 -161 -24t-131 -86t-66 -157l-166 33q4 186 148.5 288.5t408.5 102.5 q209 0 345 -111.5t136 -273.5q0 -246 -207 -362q268 -113 268 -373q0 -205 -156.5 -328t-406.5 -123q-256 0 -403.5 103t-153.5 289z" />
<glyph unicode="4" d="M127 383v170q59 82 315 432t385 531h185v-963h254v-170h-254v-383h-185v383h-700zM317 553h510v723z" />
<glyph unicode="5" d="M135 369l166 32q16 -133 122.5 -200.5t235.5 -67.5q195 0 306.5 97.5t111.5 277.5q0 164 -115.5 261t-275.5 97q-100 0 -213 -55t-143 -137l-127 65q0 2 2 4h-2l57 785h885v-164h-731l-33 -422q150 88 309 88q238 8 401.5 -125t163.5 -393q0 -236 -157.5 -385.5 t-405.5 -149.5q-256 0 -403.5 102.5t-153.5 289.5z" />
<glyph unicode="6" d="M104 766q0 156 32 291t99.5 247.5t188.5 178t283 65.5q244 0 377 -102.5t137 -288.5l-166 -33q-10 137 -111.5 202t-226.5 65q-430 0 -430 -623v-10q76 129 176 184t248 55q242 0 394 -118.5t152 -366.5q0 -252 -155.5 -393.5t-409.5 -141.5q-143 0 -249.5 44.5t-170 116 t-102.5 177t-52.5 212t-13.5 239.5zM313 453q70 -320 369 -320q182 0 288.5 92t106.5 262q0 164 -99 257.5t-257 93.5q-190 0 -296 -102.5t-112 -282.5z" />
<glyph unicode="7" d="M133 1354v174h1129v-152q-141 -152 -254 -307q-266 -362 -373 -678q-78 -227 -80 -391h-190q2 178 79 412q137 410 400 747q90 115 162 197q-141 0 -436.5 -1t-436.5 -1z" />
<glyph unicode="8" d="M78 428q0 236 229 356q-186 102 -186 338q0 207 150.5 316.5t418.5 109.5q270 0 426 -110.5t156 -315.5q0 -217 -201 -331q242 -115 242 -363q0 -217 -166 -331.5t-457 -114.5q-287 0 -449.5 115.5t-162.5 330.5zM279 428q0 -137 105 -207.5t306 -70.5q205 0 313.5 70.5 t108.5 207.5q0 279 -422 279q-193 0 -302 -80t-109 -199zM322 1122q0 -131 76.5 -191.5t236.5 -68.5q16 2 55 2q35 0 53 -2q328 18 328 260q0 125 -98.5 191.5t-282.5 66.5q-180 0 -274 -66.5t-94 -191.5z" />
<glyph unicode="9" d="M104 1014q0 252 156 393t410 141q143 0 249.5 -44t170 -115.5t102.5 -177t52 -212t13 -239.5q0 -156 -31.5 -291t-99 -247.5t-188.5 -178.5t-283 -66q-244 0 -377 102.5t-137 289.5l166 32q10 -137 111.5 -201.5t226.5 -64.5q430 0 430 623v10q-76 -129 -176 -184.5 t-248 -55.5q-242 0 -394.5 119t-152.5 367zM285 1038q0 -164 99 -257t257 -93q190 0 295.5 102.5t112.5 282.5q-70 320 -369 320q-182 0 -288.5 -92.5t-106.5 -262.5z" />
<glyph unicode=":" horiz-adv-x="686" d="M195 139q0 70 43 115t108 45q70 0 115 -45t45 -115q0 -66 -45 -108.5t-115 -42.5q-63 0 -107 42.5t-44 108.5zM195 821q0 70 43 115t108 45q70 0 115 -45t45 -115q0 -66 -45 -108.5t-115 -42.5q-63 0 -107 44t-44 107z" />
<glyph unicode=";" horiz-adv-x="692" d="M188 150q0 59 42 102t104 43q92 0 141 -68q39 -51 39 -129q0 -127 -63 -245q-61 -113 -172 -195l-78 88q16 14 40.5 39t65.5 92.5t43 122.5h-12q-74 0 -112 44.5t-38 105.5zM190 821q0 70 43 115t109 45q70 0 115 -45t45 -115q0 -66 -45 -108.5t-115 -42.5 q-63 0 -107.5 44t-44.5 107z" />
<glyph unicode="?" horiz-adv-x="1093" d="M55 1157q4 186 142.5 288.5t394.5 102.5q203 0 342 -106.5t139 -257.5q0 -43 -6 -80t-24.5 -65.5t-33 -51t-47 -43t-51 -33t-63.5 -28t-64.5 -21.5t-73 -21.5t-69.5 -19.5q-119 -35 -171 -70.5t-52 -105.5q0 -115 125 -110q45 2 79.5 38.5t34.5 65.5l131 -18 q2 -102 -76.5 -164t-187.5 -66q-131 -4 -208.5 76t-73.5 186q4 109 81.5 182.5t190.5 104.5q219 57 274 90q90 51 91 137q0 115 -104.5 169.5t-213.5 54.5q-133 0 -230.5 -64t-109.5 -203zM346 139q0 70 43 115t109 45q70 0 114.5 -45t44.5 -115q0 -66 -45 -108.5 t-114 -42.5q-63 0 -107.5 42.5t-44.5 108.5z" />
<glyph unicode="@" horiz-adv-x="1499" d="M102 463q0 334 182.5 527.5t487.5 193.5q260 0 436 -152.5t187 -439.5q6 -205 -64.5 -330t-220.5 -127q-70 0 -119 39t-59 107l-6 2h-11q-92 -150 -233 -150q-98 0 -159.5 53.5t-61.5 139.5q0 164 168 206q104 25 250 7v47q0 147 -121 147q-76 0 -100.5 -39t-10.5 -71 l-164 12q-4 14 -4 29q0 84 84 135t195 51q276 0 276 -262v-168q0 -90 22.5 -123t71.5 -33q70 0 92.5 69.5t20.5 244.5q-2 223 -126 335.5t-339 112.5q-272 0 -395 -135t-123 -406q0 -274 123 -401t393 -127q176 0 305 76l58 -99q-55 -55 -169 -91t-220 -36 q-309 0 -477.5 174.5t-168.5 481.5zM625 334q0 -68 80 -68q104 0 174 96v80l-107 -4q-147 -8 -147 -104z" />
<glyph unicode="A" horiz-adv-x="1398" d="M49 0l557 1516h207l561 -1516h-192q-78 229 -164 461h-612l-162 -461h-195zM459 608h506q-207 572 -254 707q-129 -367 -252 -707z" />
<glyph unicode="B" horiz-adv-x="1275" d="M137 0v1516h506q147 0 241.5 -21.5t159.5 -77.5q131 -109 132 -297q0 -254 -306 -344q348 -66 349 -370q0 -133 -44.5 -211t-132.5 -129q-51 -31 -128.5 -46.5t-133 -17.5t-157.5 -2h-486zM328 158h319q184 0 274.5 51t90.5 197q0 59 -27 115.5t-70 88.5q-90 68 -288 68 h-299v-520zM328 840h254q178 0 283.5 62.5t105.5 195.5q0 264 -328 264h-315v-522z" />
<glyph unicode="C" horiz-adv-x="1581" d="M115 737q0 354 205.5 576.5t539.5 222.5q293 0 469 -166q152 -141 158 -385q-16 -2 -49 -6t-49 -4q-4 0 -12.5 -1t-12.5 -1l-76 -8q-6 188 -130 300.5t-302 112.5q-244 0 -387 -175t-143 -445q0 -281 142 -447t388 -166q190 0 313.5 103.5t137.5 302.5l198 -23 q-14 -252 -207 -403q-184 -147 -456 -148q-344 0 -535.5 207t-191.5 553z" />
<glyph unicode="D" horiz-adv-x="1406" d="M137 0v1516h463q98 0 212 -28t194 -73q139 -100 226 -278.5t87 -379t-87 -378.5t-226 -279q-80 -45 -194 -72.5t-212 -27.5h-463zM326 160h223q225 0 369 98q98 78 153 211t55 288.5t-55 289t-153 210.5q-143 98 -369 99h-223v-1196z" />
<glyph unicode="E" horiz-adv-x="1177" d="M115 0v1516h1020v-156h-832v-502h676v-158h-676v-544h832v-156h-1020z" />
<glyph unicode="F" horiz-adv-x="1200" d="M113 0v1516h1022v-154h-834v-508h678v-154h-678v-700h-188z" />
<glyph unicode="G" horiz-adv-x="1679" d="M123 737q0 352 202.5 575.5t522 223.5t477.5 -145q133 -123 172 -349l-104 -16q-98 -16 -107 -16q-16 164 -131 266t-297 102q-256 0 -387 -171t-131 -449.5t131 -448.5t387 -170q199 0 332 122t158 310v43h-494v144h676v-772h-182v225q-41 -55 -88 -92 q-176 -141 -431 -142q-328 0 -517 208t-189 552z" />
<glyph unicode="H" horiz-adv-x="1492" d="M152 0v1516h188v-699h827v699h189v-1516h-189v662h-827v-662h-188z" />
<glyph unicode="I" horiz-adv-x="659" d="M229 0v1516h189v-1516h-189z" />
<glyph unicode="J" horiz-adv-x="712" d="M29 2l6 172q41 -4 59 -4q117 0 170 70q49 74 49 303v973h191v-965q0 -285 -41 -383q-49 -86 -147.5 -128t-209.5 -42q-23 0 -71 4h-6z" />
<glyph unicode="K" horiz-adv-x="1458" d="M238 0v1516h186v-1516h-186zM426 561l4 248l-2 -2l666 709h227l-649 -693l651 -823h-242q-96 119 -301 381l-239 303z" />
<glyph unicode="L" horiz-adv-x="1185" d="M174 0v1516h188v-1356h805v-160h-993z" />
<glyph unicode="M" horiz-adv-x="1845" d="M166 0v1516h268l502 -1240l506 1240h264v-1516h-184v1264l-506 -1244h-160l-502 1233v-1253h-188z" />
<glyph unicode="N" horiz-adv-x="1597" d="M207 0v1516h229q117 -186 381 -604t393 -625v1229h189v-1516h-217l-787 1243v-1243h-188z" />
<glyph unicode="O" horiz-adv-x="1658" d="M76 760q0 342 204.5 559t546.5 217q344 0 554 -217t210 -559q0 -344 -213 -562t-551 -218q-336 0 -543.5 217t-207.5 563zM281 760q0 -276 142 -444.5t404 -168.5q270 0 417 167t147 446q0 274 -147 441t-417 167q-260 0 -403 -167t-143 -441z" />
<glyph unicode="P" horiz-adv-x="1224" d="M129 0v1516h449q587 0 587 -457q0 -129 -49 -222.5t-135 -143.5t-185.5 -72.5t-217.5 -22.5h-250v-598h-199zM328 758h250q186 0 288.5 65.5t102.5 233.5q0 166 -95.5 232.5t-295.5 66.5h-250v-598z" />
<glyph unicode="Q" horiz-adv-x="1705" d="M53 760q0 342 205 559t547 217q344 0 554 -217t210 -559q0 -223 -93.5 -397.5t-258.5 -274.5q25 -55 69 -78q32 -17 64 -17q14 0 28 3q49 12 95 65l110 -75q-20 -47 -70.5 -88t-105.5 -56q-33 -10 -82 -10q-84 0 -155.5 51t-106.5 135q-124 -38 -251 -38h-7 q-336 0 -544 217t-208 563zM258 760q0 -276 142.5 -444.5t404.5 -168.5q270 0 416.5 167t146.5 446q0 274 -146.5 441t-416.5 167q-260 0 -403.5 -167t-143.5 -441z" />
<glyph unicode="R" horiz-adv-x="1298" d="M106 0v1516h568q268 0 416 -109v2q129 -121 129 -309q0 -207 -136 -316q-88 -72 -223 -100q74 -43 126 -132t124 -306q68 -197 94 -246h-215l-65 195q-6 16 -23.5 68t-26 77t-27 73t-32.5 76.5t-34.5 64.5t-42 61.5t-46.5 43.5q-29 -2 -80 -2h-315v-657h-191zM297 813 h336q203 0 295 59q92 61 92 207q0 283 -346 283h-377v-549z" />
<glyph unicode="S" horiz-adv-x="1331" d="M70 412q12 2 38.5 8t41.5 8q4 0 77 16q25 -84 68 -144t85 -91t103.5 -47.5t102.5 -19.5t100 -3q154 0 265.5 73t111.5 218q0 76 -33 128t-100.5 83t-145 47.5t-196.5 26.5q-141 14 -239.5 62t-142.5 112.5t-60.5 117t-16.5 101.5q0 170 124 299t378 129 q274 0 420.5 -101.5t150.5 -289.5l-164 -35q-12 135 -122.5 201.5t-253.5 66.5q-348 0 -349 -252q0 -109 93.5 -175t332.5 -91q262 -29 383 -126t121 -296q0 -193 -155.5 -325.5t-444.5 -132.5q-242 0 -400.5 116.5t-172.5 315.5z" />
<glyph unicode="T" horiz-adv-x="1239" d="M41 1360v156h1157v-156h-477v-1360h-184v1360h-496z" />
<glyph unicode="U" horiz-adv-x="1538" d="M150 596v920h186v-920q0 -242 124 -343t314.5 -101t315 101t124.5 343v920h189v-920q0 -121 -33 -226.5t-103.5 -195.5t-196.5 -142t-296 -52q-168 0 -294 52t-195.5 142t-102 195.5t-32.5 226.5z" />
<glyph unicode="V" horiz-adv-x="1341" d="M66 1516h192l426 -1199l428 1199h193l-564 -1516h-112z" />
<glyph unicode="W" horiz-adv-x="2156" d="M98 1516h185q25 -80 192 -611l164 -526q20 66 77.5 247t90.5 279l190 611h172q92 -307 312 -1002l45 -135q86 291 286 919l72 218h184l-464 -1516h-115l-406 1214l-407 -1214h-113z" />
<glyph unicode="X" horiz-adv-x="1456" d="M84 0q78 113 257 365.5t275 392.5l-526 758h215l443 -623l438 623h198l-536 -764l534 -752h-237l-428 614l-426 -614h-207z" />
<glyph unicode="Y" horiz-adv-x="1437" d="M88 1516h207l426 -703l428 703h207q-57 -92 -198.5 -313.5t-219.5 -344.5q-20 -31 -61 -97.5t-62 -96.5v-664h-186v664q-27 41 -123 194z" />
<glyph unicode="Z" horiz-adv-x="1359" d="M74 0v100l39 54l874 1208h-893v154h1143v-99l-10 -12h2l-901 -1251h909v-154h-1163z" />
<glyph unicode="[" horiz-adv-x="833" d="M215 -430v1980h565v-106h-385v-1768h385v-106h-565z" />
<glyph unicode="\" horiz-adv-x="909" d="M92 1550h193l532 -1550h-192z" />
<glyph unicode="]" horiz-adv-x="833" d="M53 -324h385v1768h-385v106h565v-1980h-565v106z" />
<glyph unicode="_" horiz-adv-x="1146" d="M-10 -289h1167v-139h-1167v139z" />
<glyph unicode="`" horiz-adv-x="1705" d="M451 1516h188l192 -406h-133z" />
<glyph unicode="a" horiz-adv-x="1044" d="M78 238q0 213 227 278q63 18 195 23l198 4v65q0 231 -206 232q-80 0 -132.5 -21.5t-66.5 -51.5t-18.5 -62.5t8.5 -53.5l-174 13q-4 18 -5 45q0 119 116 191.5t269 72.5q381 0 381 -361v-381q0 -65 22 -95q16 -23 57 -23q13 0 28 2v-121q-43 -14 -86 -14q-76 0 -121 48 t-51 107l-19 6q-140 -161 -321 -161h-2q-133 0 -216 70.5t-83 187.5zM262 250q0 -66 41 -99.5t109 -33.5q74 0 155.5 50t130.5 136v123l-188 -6q-248 -12 -248 -170z" />
<glyph unicode="b" horiz-adv-x="1130" d="M117 0v1536h168v-737q115 178 327 178q190 0 316.5 -135t126.5 -350q0 -244 -134.5 -376t-340.5 -132q-193 0 -301 155l-23 -10l8 -129h-147zM285 477q0 -152 76.5 -253t216.5 -101q119 0 203.5 83t84.5 269q0 184 -86 269t-207 85q-125 0 -204.5 -88t-83.5 -235v-29z " />
<glyph unicode="c" horiz-adv-x="1009" d="M84 465q0 225 130 370.5t331 145.5q184 0 293 -92q114 -98 114 -216q0 -16 -2 -32l-164 -23q1 9 1 17q0 77 -50 131q-68 80 -188 80q-129 0 -208 -109.5t-79 -257.5q0 -156 72 -258t213 -102q106 0 182 76q55 59 55 172l170 -23q1 -13 1 -27q1 -65 -31 -123 q-38 -72 -103 -122q-117 -90 -303 -90q-207 0 -320.5 131t-113.5 352z" />
<glyph unicode="d" horiz-adv-x="1161" d="M74 471q0 244 135 376t342 132q190 0 295 -139v696h170v-1536h-146l7 143l-27 9q-109 -166 -332 -166q-193 0 -318.5 135t-125.5 350zM264 487q0 -184 86 -269t207 -85q129 0 209 92t80 246v14q0 152 -77 253.5t-216 101.5q-119 0 -204 -83t-85 -270z" />
<glyph unicode="e" horiz-adv-x="1032" d="M82 465q0 225 124 366.5t320 141.5q182 0 301 -111.5t121 -300.5h2v-115h-700q6 -150 74.5 -239.5t212.5 -89.5q104 0 178 73q51 56 51 130v6l166 -23q1 -8 0 -16q0 -101 -96 -193q-112 -112 -324 -112h-4q-209 0 -317.5 130t-108.5 353zM254 561h520v7q0 120 -66 194 q-68 76 -180 76q-121 0 -189.5 -76t-84.5 -201z" />
<glyph unicode="f" horiz-adv-x="606" d="M31 827v136h180q-2 68 -31.5 170t-29.5 155q0 115 91 181.5t191 66.5q254 0 299 -176q5 -20 5 -40q0 -25 -7 -52l-164 -35q2 17 2 32q0 138 -145 138q-43 0 -73 -32t-30 -83q0 -53 26 -151.5t32 -173.5h231v-136h-229v-827h-168v827h-180z" />
<glyph unicode="g" horiz-adv-x="1067" d="M70 -225q0 76 73.5 137t143.5 72q-174 35 -174 184q0 123 151 184q-139 95 -139 271q0 150 107.5 250t306.5 100q39 0 75 -6q-8 20 -8 69q0 90 71 143.5t167 53.5q170 0 231 -113l-92 -86q-50 64 -138 64h-11q-41 -2 -66 -32t-25 -62q0 -53 37 -89q172 -96 172 -292 q0 -145 -107.5 -246t-305.5 -101q-86 0 -154 19q-98 -29 -98 -90.5t59.5 -75.5t290.5 -14q178 0 298 -69t120 -206q0 -96 -54.5 -167.5t-140.5 -109.5t-172 -56.5t-170 -18.5q-213 0 -330.5 77t-117.5 210zM250 -203q0 -80 81 -122t191 -42q145 0 252 50.5t107 132.5 q0 151 -290 151h-26q-25 0 -54.5 -1t-35.5 -1h-22q-203 -49 -203 -168zM303 623q0 -94 63.5 -158t172 -64t173 63.5t64.5 158.5q0 98 -64.5 161.5t-173 63.5t-172 -63.5t-63.5 -161.5z" />
<glyph unicode="h" horiz-adv-x="1015" d="M117 0v1536h168v-727q45 74 120.5 119t167.5 45q172 0 258.5 -100.5t86.5 -274.5v-598h-168v561q0 254 -213 254q-53 0 -105.5 -21.5t-98.5 -87t-48 -167.5v-539h-168z" />
<glyph unicode="i" horiz-adv-x="481" d="M125 1341.5q0 51.5 30.5 80t84 28.5t83 -28.5t29.5 -80t-29.5 -80t-83 -28.5t-84 28.5t-30.5 80zM154 0v963h168v-963h-168z" />
<glyph unicode="j" horiz-adv-x="555" d="M-72 -492l9 144q57 -23 131 -23q78 0 108 69q27 65 27 196v18v1051h168v-1045q0 -162 -28 -251t-101 -140q-59 -40 -155 -40q-70 0 -159 21zM180 1341.5q0 51.5 31 80t84 28.5t83 -28.5t30 -80t-30 -80t-83 -28.5t-84 28.5t-31 80z" />
<glyph unicode="k" horiz-adv-x="978" d="M158 0v1536h168v-991l419 416h216l-388 -377l416 -584h-211l-329 461l-123 -121v-340h-168z" />
<glyph unicode="l" horiz-adv-x="448" d="M150 0v1536h167v-1536h-167z" />
<glyph unicode="m" horiz-adv-x="1685" d="M117 0v963h151v-183q41 86 123 139.5t182 53.5q236 0 314 -205q35 92 121 148.5t196 56.5q164 0 253 -101.5t89 -273.5v-598h-168v561q0 131 -59 192.5t-151.5 61.5t-172.5 -68.5t-80 -224.5v-522h-167v561q0 131 -59.5 192.5t-151.5 61.5q-53 0 -105.5 -21.5t-98.5 -87 t-48 -167.5v-539h-168z" />
<glyph unicode="n" horiz-adv-x="1095" d="M168 0v963h151v-183q41 86 123 139.5t183 53.5q172 0 258 -100.5t86 -274.5v-598h-168v561q0 254 -213 254q-53 0 -105.5 -21.5t-98.5 -87t-48 -167.5v-539h-168z" />
<glyph unicode="o" horiz-adv-x="1116" d="M82 457q0 213 125 366.5t352 153.5q225 0 350 -145.5t125 -354.5q0 -207 -125 -352t-350 -145q-227 0 -352 141t-125 336zM268 477q0 -147 72 -254.5t219.5 -107.5t217 107.5t69.5 254.5q0 150 -69.5 257.5t-217 107.5t-219.5 -107.5t-72 -257.5z" />
<glyph unicode="p" horiz-adv-x="1130" d="M117 -512v1475h143l-8 -144l29 -8q109 166 331 166q190 0 316.5 -135t126.5 -350q0 -244 -134.5 -376t-340.5 -132q-195 0 -295 139v-635h-168zM285 463q4 -147 80.5 -243.5t212.5 -96.5q119 0 203.5 83t84.5 269q0 184 -86 269t-207 85q-129 0 -208.5 -92t-79.5 -245 v-29z" />
<glyph unicode="q" horiz-adv-x="1169" d="M76 469q0 244 134 376t341 132q195 0 297 -143l31 8l-2 121h137v-1475h-168v655q-110 -159 -325 -159h-3q-190 0 -316 135t-126 350zM264 485q0 -184 86 -269t207 -85q129 0 209 92t80 246v29q-4 147 -81 243.5t-212 96.5q-119 0 -204 -83t-85 -270z" />
<glyph unicode="r" horiz-adv-x="819" d="M125 0v963h151v-183q39 88 108 140.5t144 52.5q129 0 205 -64.5t76 -191.5q0 -20 -4 -70l-176 -29q4 33 4 58q0 32 -6 53q-29 100 -135 100q-80 0 -134 -94q-59 -86 -65 -272v-463h-168z" />
<glyph unicode="s" horiz-adv-x="903" d="M63 266l148 37q31 -188 233 -188q96 0 149.5 36.5t53.5 98.5q0 66 -57.5 98.5t-183.5 63.5q-176 41 -250 108q-68 66 -68 170q0 111 90 197t266 86q133 -1 243 -65q104 -61 104 -171v-12l-152 -33q-4 78 -66.5 113t-146.5 35q-78 0 -127 -35t-49 -88q0 -57 47 -89 t190 -63q166 -35 247 -100.5t81 -183.5q0 -127 -100.5 -213t-294.5 -86q-145 0 -254 74q-103 71 -103 196v14z" />
<glyph unicode="t" horiz-adv-x="653" d="M37 827v129h156v344l167 62v-406h246v-129h-246v-534q0 -100 18.5 -130t63.5 -30q72 0 136 21l2 -136q-93 -30 -198 -30h-7q-53 0 -89 15t-54.5 34.5t-27.5 67t-10 80t-1 102.5v18v522h-156z" />
<glyph unicode="u" horiz-adv-x="1040" d="M102 354v609h168v-572q0 -135 53.5 -194.5t159.5 -59.5q92 0 172 68.5t80 224.5v533h168v-963h-151v172q-43 -86 -125 -139t-181 -53q-172 0 -258 100t-86 274z" />
<glyph unicode="v" horiz-adv-x="958" d="M33 963h172l274 -734l277 734h170l-363 -963h-166z" />
<glyph unicode="w" horiz-adv-x="1484" d="M33 963h170l237 -687l236 687h135l236 -687l235 687h170l-342 -963h-125l-231 664l-11 38l-8 -36l-233 -666h-125z" />
<glyph unicode="x" horiz-adv-x="950" d="M41 963h199l241 -349l232 349h192l-327 -488l331 -475h-198l-242 348l-231 -348h-193l328 485z" />
<glyph unicode="y" horiz-adv-x="993" d="M6 -459l35 174q40 -34 105 -34h4q66 0 107.5 37.5t86.5 152.5l51 135l-364 957h176l268 -713l4 -21l2 7l4 14l269 713h172l-365 -967l-84 -223q-57 -154 -147 -214.5t-178 -60.5q-109 0 -146 43z" />
<glyph unicode="z" horiz-adv-x="872" d="M53 0v141l553 680h-530v142h735v-142l-553 -680h563v-141h-768z" />
<glyph unicode="{" horiz-adv-x="817" d="M174 508v102q76 4 116 60.5t51 141.5t13 186.5t11.5 200.5t36 180t97 129t183.5 42l2 -82q-59 -4 -90 -57t-38 -134t-8 -177t-8.5 -191.5t-30 -173.5t-81.5 -127t-156 -49q96 0 155.5 -49t82 -127t30 -173t8.5 -191.5t8 -177.5t38 -134t90 -57l-2 -82q-113 -6 -183.5 42 t-97 129t-36 180t-11.5 200.5t-13 186.5t-51 141.5t-116 60.5z" />
<glyph unicode="|" horiz-adv-x="774" d="M297 -430v1980h180v-1980h-180z" />
<glyph unicode="}" horiz-adv-x="817" d="M133 -350q59 4 90 57t38 134t8 177.5t8.5 191.5t30 173t82 127t155.5 49q-96 0 -155.5 49t-82 127t-30 173.5t-8.5 191.5t-8 177t-37.5 134t-90.5 57l2 82q113 6 183.5 -42t97 -129t36 -180t11.5 -200.5t13 -186.5t51 -141.5t116 -60.5v-102q-76 -4 -116 -60.5 t-51 -141.5t-13 -186.5t-11.5 -200.5t-36 -180t-97 -129t-183.5 -42z" />
<glyph unicode="~" horiz-adv-x="1179" d="M51 557q4 8 12.5 20.5t39 44t66.5 56t95.5 44t124.5 19.5q94 0 161.5 -32.5t122 -64.5t115.5 -32q70 0 128.5 34t82.5 67l23 32l106 -92q-4 -8 -12 -20t-38.5 -44t-65.5 -56.5t-95.5 -44t-128.5 -19.5q-109 0 -219 64.5t-180 64.5q-43 0 -83 -13.5t-65.5 -33t-45 -39.5 t-27.5 -33l-10 -14z" />
<glyph unicode="&#xa8;" horiz-adv-x="1705" d="M240 1300.5q0 51.5 30.5 80t84 28.5t83 -28.5t29.5 -80t-29.5 -80t-83 -28.5t-84 28.5t-30.5 80zM598 1300.5q0 51.5 30.5 80t84 28.5t83 -28.5t29.5 -80t-29.5 -80t-83 -28.5t-84 28.5t-30.5 80z" />
<glyph unicode="&#xab;" horiz-adv-x="1058" d="M164 522l184 441h213l-184 -441l184 -438h-213zM535 522l184 441h213l-184 -441l184 -438h-213z" />
<glyph unicode="&#xad;" horiz-adv-x="870" d="M113 471v170h645v-170h-645z" />
<glyph unicode="&#xb4;" horiz-adv-x="1705" d="M451 1110l192 406h188l-247 -406h-133z" />
<glyph unicode="&#xb8;" horiz-adv-x="1685" d="M344 -401l35 100q53 -25 113 -25q94 0 94 70q0 47 -52.5 74.5t-125.5 19.5l41 185h116l-6 -95q182 -43 182 -186q0 -92 -68.5 -136t-160.5 -44q-94 0 -168 37z" />
<glyph unicode="&#xbb;" horiz-adv-x="1058" d="M123 84l184 438l-184 441h213l184 -441l-184 -438h-213zM494 84l184 438l-184 441h213l184 -441l-184 -438h-213z" />
<glyph unicode="&#xe7;" horiz-adv-x="1009" d="M84 465q0 225 130 370.5t331 145.5q184 0 293 -92q129 -111 112 -248l-164 -23q6 88 -49 148q-68 80 -188 80q-129 0 -208 -109.5t-79 -257.5q0 -156 72 -258t213 -102q106 0 182 76q55 59 55 172l170 -23q8 -78 -30.5 -149.5t-102.5 -122.5q-117 -90 -303 -90 q-207 0 -320.5 131t-113.5 352zM344 -401l35 100q53 -25 113 -25q94 0 94 70q0 47 -52.5 74.5t-125.5 19.5l41 185h116l-6 -95q182 -43 182 -186q0 -92 -68.5 -136t-160.5 -44q-94 0 -168 37z" />
<glyph unicode="&#xe8;" horiz-adv-x="1032" d="M82 465q0 225 124 366.5t320 141.5q182 0 301 -111.5t121 -300.5h2v-115h-700q6 -150 74.5 -239.5t212.5 -89.5q104 0 178 73q53 58 51 136l166 -23q8 -109 -96 -209q-113 -113 -328 -112q-209 0 -317.5 130t-108.5 353zM254 561h520q2 125 -66.5 201t-179.5 76 q-121 0 -189.5 -76t-84.5 -201zM305 1516h189l192 -406h-133z" />
<glyph unicode="&#xe9;" horiz-adv-x="1032" d="M82 465q0 225 124 366.5t320 141.5q182 0 301 -111.5t121 -300.5h2v-115h-700q6 -150 74.5 -239.5t212.5 -89.5q104 0 178 73q53 58 51 136l166 -23q8 -109 -96 -209q-113 -113 -328 -112q-209 0 -317.5 130t-108.5 353zM254 561h520q2 125 -66.5 201t-179.5 76 q-121 0 -189.5 -76t-84.5 -201zM383 1110l192 406h189l-248 -406h-133z" />
<glyph unicode="&#x2c6;" horiz-adv-x="712" d="M-14 1110l311 426h127l311 -426h-168l-207 260l-206 -260h-168z" />
<glyph unicode="&#x2dc;" horiz-adv-x="759" d="M31 1214q0 117 56 197t181 80q66 0 147 -59.5t107 -59.5q45 0 68.5 24.5t27 47t3.5 57.5h108q0 -117 -56.5 -196.5t-180.5 -79.5q-66 0 -147 59t-107 59q-99 0 -99 -129h-108z" />
<glyph unicode="&#x2000;" horiz-adv-x="780" />
<glyph unicode="&#x2001;" horiz-adv-x="1561" />
<glyph unicode="&#x2002;" horiz-adv-x="780" />
<glyph unicode="&#x2003;" horiz-adv-x="1561" />
<glyph unicode="&#x2004;" horiz-adv-x="520" />
<glyph unicode="&#x2005;" horiz-adv-x="390" />
<glyph unicode="&#x2006;" horiz-adv-x="260" />
<glyph unicode="&#x2007;" horiz-adv-x="260" />
<glyph unicode="&#x2008;" horiz-adv-x="195" />
<glyph unicode="&#x2009;" horiz-adv-x="312" />
<glyph unicode="&#x200a;" horiz-adv-x="86" />
<glyph unicode="&#x2010;" horiz-adv-x="870" d="M113 471v170h645v-170h-645z" />
<glyph unicode="&#x2011;" horiz-adv-x="870" d="M113 471v170h645v-170h-645z" />
<glyph unicode="&#x2012;" horiz-adv-x="870" d="M113 471v170h645v-170h-645z" />
<glyph unicode="&#x2013;" horiz-adv-x="755" d="M-10 438v129h776v-129h-776z" />
<glyph unicode="&#x2014;" horiz-adv-x="1529" d="M-10 438v129h1550v-129h-1550z" />
<glyph unicode="&#x2018;" horiz-adv-x="479" d="M66 1120q0 127 63 246q61 113 172 195l78 -88q-16 -14 -41 -39t-67 -92.5t-42 -124.5q2 0 6.5 1t6.5 1q74 0 111.5 -44.5t37.5 -105.5q0 -59 -42 -102t-103 -43q-92 0 -142 67q-39 51 -38 129z" />
<glyph unicode="&#x2019;" horiz-adv-x="479" d="M86 1415q0 59 42 102.5t103 43.5q92 0 142 -68q39 -51 39 -129q0 -127 -64 -246q-61 -113 -172 -194l-78 88q16 14 41 38.5t66 91t43 124.5h-12q-74 0 -112 44t-38 105z" />
<glyph unicode="&#x201c;" horiz-adv-x="927" d="M86 1120q0 127 64 246q61 113 172 195l77 -88q-16 -14 -40.5 -39t-66.5 -92.5t-42 -124.5q2 0 6 1t6 1q74 0 112 -44.5t38 -105.5q0 -59 -42 -102t-104 -43q-92 0 -141 67q-39 51 -39 129zM524 1120q0 127 64 246q61 113 172 195l78 -88q-16 -14 -41 -39t-67 -92.5 t-42 -124.5q2 0 6 1t6 1q74 0 112 -44.5t38 -105.5q0 -59 -42 -102t-103 -43q-92 0 -142 67q-39 51 -39 129z" />
<glyph unicode="&#x201d;" horiz-adv-x="927" d="M86 1415q0 59 42 102.5t103 43.5q92 0 142 -68q39 -51 39 -129q0 -127 -64 -246q-61 -113 -172 -194l-78 88q16 14 41 38.5t66 91t43 124.5h-12q-74 0 -112 44t-38 105zM524 1415q0 59 42 102.5t104 43.5q92 0 141 -68q39 -51 39 -129q0 -127 -64 -246 q-61 -113 -172 -194l-77 88q16 14 40.5 38.5t65.5 91t43 124.5h-12q-74 0 -112 44t-38 105z" />
<glyph unicode="&#x2026;" horiz-adv-x="1861" d="M184 143q0 70 44 116t112 46q70 0 116 -46t46 -116q0 -68 -46 -111.5t-116 -43.5q-68 0 -112 43.5t-44 111.5zM772 143q0 70 44 116t112 46q70 0 116 -46t46 -116q0 -68 -46.5 -111.5t-115.5 -43.5q-68 0 -112 43.5t-44 111.5zM1360 143q0 70 44 116t112 46 q70 0 115.5 -46t45.5 -116q0 -68 -46 -111.5t-115 -43.5q-68 0 -112 43.5t-44 111.5z" />
<glyph unicode="&#x202f;" horiz-adv-x="312" />
<glyph unicode="&#x2039;" horiz-adv-x="684" d="M164 522l184 441h213l-184 -441l184 -438h-213z" />
<glyph unicode="&#x203a;" horiz-adv-x="684" d="M154 86l184 438l-184 441h213l184 -441l-184 -438h-213z" />
<glyph unicode="&#x205f;" horiz-adv-x="390" />
<glyph unicode="&#x25fc;" horiz-adv-x="962" d="M0 0v963h963v-963h-963z" />
<glyph unicode="&#xfb01;" horiz-adv-x="1198" d="M41 827v136h180q-2 68 -31.5 170t-29.5 155q0 115 91 181.5t191 66.5q254 0 299 -176q10 -43 -2 -92l-164 -35q18 170 -143 170q-43 0 -72.5 -32t-29.5 -83q0 -53 25.5 -151.5t31.5 -173.5h231v-136h-229v-827h-168v827h-180zM819 1341.5q0 51.5 31 80t84 28.5t83 -28.5 t30 -80t-30 -80t-83 -28.5t-84 28.5t-31 80zM848 0v963h168v-963h-168z" />
<glyph unicode="&#xfb02;" horiz-adv-x="1159" d="M41 827v136h180q-2 68 -31.5 170t-29.5 155q0 115 91 181.5t191 66.5q254 0 299 -176q10 -43 -2 -92l-164 -35q18 170 -143 170q-43 0 -72.5 -32t-29.5 -83q0 -53 25.5 -151.5t31.5 -173.5h231v-136h-229v-827h-168v827h-180zM829 0v1536h168v-1536h-168z" />
</font>
</defs>
</svg>
